<svg width="118" height="26" viewBox="0 0 118 26" fill="none" xmlns="http://www.w3.org/2000/svg">
<path d="M36.6082 26V0.510058H38.0096V4.51992C38.1751 4.34229 38.328 4.15359 38.4672 3.95515C39.0398 2.78148 39.9394 1.7933 41.0606 1.10644C42.1817 0.419583 43.478 0.0625046 44.7973 0.0770651C47.991 -0.0170632 50.5841 1.15013 52.1094 3.95515C53.08 5.69768 53.6141 7.64422 53.6672 9.63217C53.7202 11.6201 53.2907 13.5917 52.4145 15.3823C50.994 18.5262 47.4857 20.0887 43.7296 19.5146C42.5607 19.4163 41.4354 19.0305 40.4562 18.3926C39.4771 17.7547 38.6753 16.8848 38.124 15.8624V26H36.6082ZM38.0096 9.52755C38.1335 10.77 38.1812 11.6548 38.3242 12.5208C38.8771 15.9283 40.9172 17.952 44.1205 18.3191C45.6245 18.5632 47.1678 18.2848 48.4872 17.5313C49.8066 16.7778 50.8206 15.5959 51.3563 14.1869C51.9719 12.7377 52.2681 11.1757 52.2254 9.60475C52.1826 8.0338 51.8019 6.4898 51.1084 5.07528C50.5366 3.81245 49.5642 2.76761 48.3379 2.09857C47.1117 1.42953 45.6983 1.17261 44.3111 1.36663C43.0088 1.45979 41.7681 1.95132 40.7618 2.77288C39.7554 3.59443 39.0334 4.70518 38.696 5.95067C38.3974 7.12887 38.1682 8.32317 38.0096 9.52755ZM82.254 12.9915C82.0416 14.7861 81.1764 16.4436 79.8191 17.6556C78.4618 18.8676 76.7049 19.5516 74.8751 19.5805C69.0026 19.8722 66.2474 16.0224 65.8089 11.5795C65.5045 9.16684 65.9013 6.71841 66.9529 4.51992C67.6853 3.01189 68.8846 1.77308 70.3774 0.982807C71.8703 0.192534 73.579 -0.108201 75.2565 0.124132C76.8512 0.257585 78.363 0.882992 79.5778 1.9118C80.7926 2.9406 81.6488 4.32065 82.0252 5.85654C82.3235 7.25538 82.5432 8.66947 82.683 10.0923H67.2484C66.9624 14.121 69.1551 17.359 72.263 18.1403C76.1335 19.0816 79.4416 17.4249 80.6428 13.7916C80.9098 12.8597 81.396 12.7279 82.254 12.9915ZM67.2484 8.80276H81.0432C80.9574 4.51051 78.25 1.40427 74.5796 1.35721C70.4231 1.29132 67.4296 4.2846 67.2484 8.80276ZM85.0949 13.0856H86.4487C86.4987 14.0691 86.8223 15.02 87.3841 15.8337C87.9458 16.6474 88.7239 17.2924 89.6328 17.6979C90.7741 18.205 92.0166 18.4514 93.2677 18.4188C94.5189 18.3862 95.7465 18.0755 96.8591 17.5096C97.4655 17.2397 97.9734 16.7927 98.3143 16.2288C98.6553 15.665 98.8128 15.0114 98.7658 14.3563C98.8007 13.7245 98.6259 13.0988 98.2681 12.5739C97.9102 12.049 97.3888 11.6536 96.7828 11.4478C95.2956 10.9018 93.7131 10.6006 92.1973 10.1206C90.6201 9.6771 89.0779 9.12026 87.5831 8.45448C85.1426 7.27788 84.9901 2.69383 87.7547 1.24426C89.1704 0.455497 90.7635 0.0293395 92.3888 0.00467641C94.0141 -0.0199867 95.6198 0.357628 97.0593 1.10306C97.9313 1.57891 98.6357 2.30591 99.0786 3.18713C99.5214 4.06836 99.6817 5.06193 99.538 6.03539H98.3749C98.3749 5.97891 98.27 5.93185 98.27 5.87537C98.127 2.21378 95.0192 1.08424 91.6825 1.40427C90.6864 1.52559 89.7189 1.81534 88.8225 2.26084C88.2839 2.50403 87.835 2.9063 87.5379 3.41212C87.2408 3.91794 87.11 4.50235 87.1637 5.08469C87.1653 5.66729 87.3494 6.23513 87.6908 6.71035C88.0321 7.18557 88.514 7.54491 89.0703 7.73911C90.5385 8.26623 92.0733 8.60509 93.5796 9.01925C94.7904 9.3487 96.0488 9.5652 97.2214 9.96054C98.049 10.2284 98.7747 10.7381 99.3025 11.4222C99.8302 12.1064 100.135 12.9326 100.177 13.7916C100.318 14.7327 100.156 15.694 99.7126 16.5388C99.2693 17.3836 98.5678 18.0691 97.7076 18.498C94.5234 20.277 89.2801 19.8064 86.9444 17.5567C86.3524 16.9689 85.8842 16.2712 85.5668 15.5038C85.2494 14.7364 85.089 13.9145 85.0949 13.0856ZM117.337 6.03539H116.069C116.069 5.86596 116.002 5.71535 115.983 5.57416C115.962 4.63575 115.616 3.73281 115.002 3.01654C114.387 2.30027 113.542 1.81415 112.608 1.63959C110.846 1.14032 108.966 1.22966 107.26 1.89374C106.586 2.08461 105.992 2.48566 105.568 3.03701C105.143 3.58835 104.911 4.26043 104.905 4.95291C104.882 5.63299 105.096 6.30031 105.513 6.84221C105.93 7.38411 106.523 7.7674 107.193 7.92736C109.1 8.51096 111.054 8.86865 112.99 9.39577C113.617 9.54439 114.234 9.72984 114.839 9.95112C115.742 10.2701 116.527 10.8507 117.09 11.6169C117.654 12.3832 117.97 13.2994 117.998 14.246C118.026 15.1926 117.764 16.1254 117.246 16.9227C116.728 17.7199 115.979 18.3443 115.096 18.7145C113.751 19.3177 112.293 19.6368 110.815 19.6514C109.338 19.6659 107.874 19.3757 106.516 18.7992C105.4 18.3239 104.458 17.5224 103.817 16.5025C103.177 15.4827 102.868 14.2935 102.932 13.095H104.171C104.4 14.1872 104.896 15.2077 105.615 16.0682C106.333 16.9287 107.254 17.6032 108.296 18.0334C109.338 18.4636 110.471 18.6364 111.596 18.5369C112.721 18.4375 113.805 18.0687 114.753 17.4626C115.331 17.1662 115.81 16.7126 116.135 16.1553C116.459 15.5981 116.615 14.9607 116.584 14.3187C116.612 13.6865 116.432 13.0624 116.069 12.5409C115.706 12.0194 115.18 11.629 114.572 11.4289C113.085 10.883 111.502 10.5912 109.987 10.1111C108.4 9.67453 106.849 9.12398 105.344 8.4639C102.96 7.30612 102.77 2.75972 105.487 1.31015C106.92 0.488341 108.544 0.0468823 110.202 0.0287378C111.859 0.0105932 113.493 0.41638 114.944 1.20661C115.774 1.69583 116.442 2.41272 116.867 3.27004C117.292 4.12735 117.455 5.08811 117.337 6.03539ZM34.2916 19.1192C33.7924 19.3058 33.2413 19.3055 32.7425 19.1181C32.2436 18.9308 31.8315 18.5696 31.5841 18.1026C30.0301 15.8059 28.3141 13.6127 26.6649 11.3725L25.9499 10.4312C23.986 13.0291 22.0221 15.5235 20.2298 18.1121C19.9963 18.5583 19.6065 18.9055 19.1329 19.0891C18.6594 19.2726 18.1344 19.28 17.6558 19.1098L25.0251 9.3487L18.1706 0.528881C18.664 0.352974 19.2038 0.350562 19.6988 0.522051C20.1938 0.69354 20.6137 1.02842 20.8876 1.47016C22.4797 3.76689 24.2434 5.96008 25.9975 8.28505C27.7612 5.97891 29.5058 3.77631 31.136 1.4984C31.3708 1.0594 31.7608 0.720929 32.2319 0.547373C32.703 0.373816 33.2223 0.377286 33.691 0.557121L31.0311 4.03987C29.8395 5.59299 28.6669 7.15551 27.4275 8.67098C27.3277 8.75927 27.2478 8.86735 27.1931 8.98819C27.1384 9.10902 27.1101 9.23988 27.1101 9.37223C27.1101 9.50459 27.1384 9.63545 27.1931 9.75628C27.2478 9.87712 27.3277 9.98521 27.4275 10.0735C29.706 13.0574 31.9654 16.0506 34.2916 19.1192ZM65.5801 0.434754V1.75255C64.6159 1.69011 63.6491 1.82798 62.7422 2.15727C61.8353 2.48656 61.0084 2.99995 60.3149 3.6643C59.6214 4.32865 59.0766 5.1292 58.7158 6.01427C58.3551 6.89935 58.1863 7.84928 58.2203 8.80276V19.1569H56.8571V0.510058H58.1917V4.33166C59.841 1.54547 62.3864 0.510056 65.5801 0.434754ZM0 9.22634C0.200201 8.28505 0.324135 7.25905 0.600603 6.29895C2.24988 0.510056 8.97091 -1.89963 13.5946 1.68666C16.3021 3.78572 16.9789 6.76017 16.8455 10.1111H1.59207C1.34421 16.0977 5.72003 19.7122 11.3161 17.8673C12.2239 17.5467 13.0365 17.008 13.6806 16.2997C14.3247 15.5914 14.7801 14.7359 15.0055 13.8104C15.3011 12.8691 15.7777 12.7091 16.6834 12.9821C16.5342 14.128 16.1239 15.2256 15.4832 16.1924C14.8425 17.1592 13.9882 17.97 12.9845 18.5639C11.326 19.4593 9.42331 19.814 7.54838 19.5773C5.67344 19.3407 3.92232 18.5247 2.54541 17.2461C1.18324 15.7338 0.359603 13.8231 0.200201 11.8055C0.200201 11.4854 0.076267 11.1654 0.00953337 10.8642C0.00317778 10.3057 0 9.75973 0 9.22634ZM1.61114 8.82158H15.4059C15.3201 4.48227 12.5459 1.40428 8.84697 1.37604C4.72855 1.31956 1.78274 4.33166 1.60161 8.80276L1.61114 8.82158Z" fill="#59A946"/>
</svg>
